Coordinates
version=1
nRows=16
nColumns=36
inDegrees=yes

Units are S.I. units (second, meters, Newtons, ...)
If the header above contains a line with 'inDegrees', this indicates whether rotational values are in degrees (yes) or radians (no).

endheader
time	pelvis_tilt	pelvis_list	pelvis_rotation	pelvis_tx	pelvis_ty	pelvis_tz	hip_flexion_r	hip_adduction_r	hip_rotation_r	knee_angle_r	knee_angle_r_beta	ankle_angle_r	subtalar_angle_r	mtp_angle_r	hip_flexion_l	hip_adduction_l	hip_rotation_l	knee_angle_l	knee_angle_l_beta	ankle_angle_l	subtalar_angle_l	mtp_angle_l	lumbar_extension	lumbar_bending	lumbar_rotation	arm_flex_r	arm_add_r	arm_rot_r	elbow_flex_r	pro_sup_r	arm_flex_l	arm_add_l	arm_rot_l	elbow_flex_l	pro_sup_l
      0.00000000	      3.60955909	     -7.00696175	      0.83445837	      0.01716041	      1.05753350	      0.00900167	     11.57539762	      1.05669146	     -2.87514503	     21.59025680	      0.37682107	     -0.98124470	    -19.69294497	     -6.75236549	     -0.85045330	     -0.45503210	     -5.29913660	      5.17495127	      0.09031994	      8.00970037	     -2.11109494	     -6.75236549	     -7.45830274	      3.47947535	     -4.32957669	     -2.51532188	     -5.10751077	     13.92585046	     26.62175521	     73.57304802	     -2.29184316	     -7.90040058	     15.24411106	     29.34000820	     71.34867743
      0.01666670	      1.57352254	     -6.29834153	      1.52432737	      0.02461990	      1.05055832	      0.01125967	     12.74995938	      0.46903746	     -2.59589464	     22.37038906	      0.39043694	      3.22960238	    -15.78582814	     -6.81918071	      0.63986957	      0.52145657	     -3.96990706	      5.12273080	      0.08940852	      9.76817730	     -1.75590083	     -6.81918071	     -4.10840355	      2.42725366	     -4.52122602	     -4.20729498	     -4.04094641	     11.05944155	     26.92777691	     71.34258134	     -3.04363524	     -7.49586416	     13.25821377	     29.64807001	     69.56898614
      0.03333330	     -0.09584061	     -5.42248841	      0.88742050	      0.02262366	      1.05072214	      0.01295045	     13.16983590	     -0.23121231	     -3.10759582	     21.32045450	      0.37211213	      3.97491989	    -14.77269483	     -7.06263875	      2.12333268	      1.36560645	     -5.01439960	      4.81363813	      0.08401383	      9.48619236	     -0.63232130	     -7.06263875	     -1.77964132	      1.32395044	     -3.64308458	     -5.38228945	     -2.76276021	      2.79637122	     27.79725862	     81.98248393	     -3.19938017	     -7.25779969	     10.29675427	     28.65693970	     78.73167803
      0.05000000	     -0.50649529	     -5.10716801	      0.87214834	      0.02416111	      1.05183661	      0.01505127	     12.87201167	     -0.45999220	     -3.45036064	     21.74654738	      0.37954885	      4.85251095	    -14.60942508	     -7.08515977	      2.25689787	      1.57448949	     -4.82442159	      4.33169485	      0.07560234	      9.62552371	     -0.32042946	     -7.08515977	     -1.13104643	      0.80800525	     -3.25417722	     -5.78587013	     -2.51630575	      2.36140629	     27.97584875	     79.94446773	     -3.46275985	     -7.65342111	     10.54151753	     28.86834491	     77.19590242
      0.06666670	     -0.88521585	     -4.89004622	      0.65440446	      0.02393746	      1.05173077	      0.01663360	     12.28830541	     -0.46599773	     -3.47028762	     21.61223488	      0.37720466	      5.31726778	    -14.71576180	     -7.09532900	      2.76284422	      1.72873178	     -4.39713085	      4.75094376	      0.08291961	      9.64965668	     -0.79608734	     -7.09532900	     -0.76340429	      0.52049850	     -2.63442439	     -6.09524361	     -2.63982692	      3.04092277	     28.33192233	     79.80447962	     -3.47219140	     -8.03328735	     11.88951019	     29.07735852	     77.52433834
      0.08333330	     -1.00005440	     -4.82277382	      0.54340275	      0.02891002	      1.06122347	      0.01651350	     10.94037539	     -0.27051911	     -3.70519920	     20.88329830	      0.36448231	      5.17923477	    -14.34613141	     -7.10080977	      2.37585328	      1.62615180	     -4.76909579	      4.21447110	      0.07355640	      9.59155444	      0.12605631	     -7.10080977	     -0.42298092	      0.36978274	     -2.21340662	     -6.33616161	     -2.73203533	      3.48696747	     28.27195847	     80.04461949	     -3.41978673	     -7.99643287	     12.36288175	     29.13519891	     78.10673696
      0.10000000	     -1.13722232	     -4.87162867	      0.32171976	      0.03015696	      1.05730405	      0.01838225	     10.07128805	     -0.03562134	     -3.87359770	     20.44550309	      0.35684135	      5.12578166	    -14.60231267	     -7.10388857	      2.24277104	      1.47536095	     -4.99217468	      3.99308952	      0.06969256	      9.70444713	      0.06625915	     -7.10388857	     -0.20274786	      0.35422054	     -1.71786856	     -6.43724808	     -2.82559266	      3.74750522	     28.15809327	     80.19204371	     -3.39757132	     -7.86669938	     12.45808033	     29.25657643	     78.27268923
      0.11666670	     -0.98309405	     -4.83660940	     -0.03360250	      0.02832203	      1.05809016	      0.02131674	      8.85525575	      0.20952790	     -4.11896167	     19.54276656	      0.34108562	      4.94020460	    -14.40316119	     -7.08493435	      1.80945298	      1.37601273	     -5.48006541	      3.61676029	      0.06312438	      9.74236286	      0.42501528	     -7.08493435	     -0.45776672	      0.21956055	     -1.21662589	     -6.12235235	     -3.09371978	      5.18114450	     27.91877508	     79.98956172	     -3.00125061	     -7.79810760	     12.79881988	     29.16688932	     78.27853438
      0.13333330	     -1.07884041	     -4.78263201	     -0.20547262	      0.02998562	      1.05121045	      0.02268837	      7.96384024	      0.31987822	     -4.63466096	     18.74561172	      0.32717264	      4.90090725	    -14.29240931	     -7.09238657	      1.73275543	      1.32252262	     -5.81945204	      3.46184810	      0.06042065	      9.71077461	      0.35610998	     -7.09238657	     -0.34932983	      0.06425826	     -0.87527745	     -6.06075557	     -3.14861528	      5.40255186	     27.88163441	     80.05604843	     -3.00079450	     -7.73313597	     12.80905770	     29.06625920	     78.36381851
      0.15000000	     -0.74323489	     -4.72562738	     -0.68840792	      0.02663901	      1.05110823	      0.02552030	      6.77469887	      0.44730372	     -5.35164822	     17.59352536	      0.30706494	      5.06938125	    -13.54081603	     -7.10202295	      1.36392000	      1.25216114	     -6.29936612	      3.52630968	      0.06154571	      9.77783862	      0.26142075	     -7.10202295	     -0.97225100	     -0.06324287	     -0.35101987	     -5.49020525	     -3.58016234	      7.62844301	     27.76767805	     80.15700445	     -2.64275130	     -7.70695046	     12.97273167	     28.79163835	     79.06013619
      0.16666670	     -0.68955484	     -4.55682354	     -1.02348825	      0.03294519	      1.04918403	      0.02709493	      5.69906750	      0.51820924	     -5.83326747	     16.35095810	      0.28537805	      5.94366653	    -12.36653352	     -7.12782176	      1.03152998	      1.31872384	     -6.53441885	      3.26083006	      0.05691222	     10.01438419	      0.49148111	     -7.12782176	     -0.97168895	     -0.28671501	      0.02071463	     -5.55731074	     -3.63741373	      7.66877406	     27.90693702	     79.86928339	     -2.71357562	     -7.62802921	     12.70742391	     28.68764069	     78.88095282
      0.18333330	     -0.85018536	     -4.37043951	     -1.42570834	      0.03060352	      1.04601756	      0.02986800	      5.26168567	      0.62875213	     -5.87625208	     15.51271530	      0.27074796	      6.74505242	    -12.15540541	     -7.12961725	      1.15457874	      1.39450150	     -6.64548872	      3.40502969	      0.05942898	     10.44278865	      0.38183618	     -7.12961725	     -0.80957265	     -0.52264212	      0.27638275	     -5.39427659	     -3.69515937	      7.71946454	     28.07877878	     79.93937680	     -2.80544898	     -7.68291927	     12.66782741	     28.61280553	     78.95513003
      0.20000000	     -0.64848735	     -4.31057428	     -1.49642001	      0.03446559	      1.04541997	      0.03111122	      4.14931876	      0.77790857	     -6.39833123	     14.29230705	      0.24944782	      8.11919720	    -10.32918771	     -7.15524400	      0.45651076	      1.40796121	     -6.68865340	      2.93807785	      0.05127913	     10.95646683	      1.02522430	     -7.15524400	     -0.97063135	     -0.55856097	      0.44887686	     -5.57181497	     -3.94184797	      7.94251821	     28.77983654	     79.65824341	     -2.84792473	     -7.62362089	     12.48138210	     28.38009533	     78.73148586
      0.21666670	     -0.68636913	     -4.09498694	     -1.72683281	      0.03975283	      1.04155249	      0.03259942	      2.84079325	      0.81619281	     -6.68958705	     12.45555189	      0.21739039	      9.24344339	     -8.82657892	     -7.32702470	      0.07681808	      1.54551921	     -7.00541749	      2.70121280	      0.04714506	     11.41679140	      1.42620735	     -7.32702470	     -0.59969166	     -0.75563464	      0.90286603	     -5.88563958	     -4.04315195	      7.26213706	     29.36390864	     83.07621688	     -2.93374650	     -7.44307078	     11.58517062	     27.85491074	     83.56211862
      0.23333330	     -0.79461139	     -3.92315775	     -2.08854801	      0.03377894	      1.04344514	      0.03327474	      2.13160807	      0.85594960	     -6.61044459	     11.13673056	      0.19437262	      9.99561868	     -7.92766377	     -7.33446124	      0.04673230	      1.69845283	     -7.03305074	      2.57026703	      0.04485962	     11.72718451	      1.46572043	     -7.33446124	     -0.38671947	     -0.84130654	      1.24123937	     -5.84010769	     -4.34635681	      7.95306087	     29.94649637	     82.25029254	     -2.96475896	     -7.34909397	     11.69627685	     27.58676637	     82.71394633
      0.25000000	     -0.79388135	     -3.73621697	     -2.20849800	      0.03542871	      1.04383176	      0.03395921	      1.48487546	      0.81441553	     -6.54048480	     10.15570857	      0.17725055	     10.29884778	     -7.29678017	     -7.39456636	     -0.07146043	      1.88765185	     -6.74196737	      2.51645425	      0.04392041	     11.76047807	      1.22821618	     -7.39456636	     -0.25650018	     -0.94316061	      1.43278330	     -5.70186583	     -4.65904860	      9.39601690	     30.33871151	     78.31872160	     -2.92582902	     -7.39388409	     12.84300797	     27.34185778	     78.82795484
